<?xml version="1.0" encoding="UTF-8" standalone="no"?>
<!-- Generator: Adobe Illustrator 19.2.1, SVG Export Plug-In . SVG Version: 6.00 Build 0)  -->

<svg
   xmlns:dc="http://purl.org/dc/elements/1.1/"
   xmlns:cc="http://creativecommons.org/ns#"
   xmlns:rdf="http://www.w3.org/1999/02/22-rdf-syntax-ns#"
   xmlns:svg="http://www.w3.org/2000/svg"
   xmlns="http://www.w3.org/2000/svg"
   xmlns:sodipodi="http://sodipodi.sourceforge.net/DTD/sodipodi-0.dtd"
   xmlns:inkscape="http://www.inkscape.org/namespaces/inkscape"
   version="1.1"
   id="layer"
   x="0px"
   y="0px"
   viewBox="0 0 337.84906 310.79999"
   xml:space="preserve"
   sodipodi:docname="Mo.svg"
   inkscape:version="0.92.4 (5da689c313, 2019-01-14)"
   width="337.84906"
   height="310.79999"><metadata
   id="metadata13"><rdf:RDF><cc:Work
       rdf:about=""><dc:format>image/svg+xml</dc:format><dc:type
         rdf:resource="http://purl.org/dc/dcmitype/StillImage" /><dc:title></dc:title></cc:Work></rdf:RDF></metadata><defs
   id="defs11" /><sodipodi:namedview
   pagecolor="#ffffff"
   bordercolor="#666666"
   borderopacity="1"
   objecttolerance="10"
   gridtolerance="10"
   guidetolerance="10"
   inkscape:pageopacity="0"
   inkscape:pageshadow="2"
   inkscape:window-width="1920"
   inkscape:window-height="1009"
   id="namedview9"
   showgrid="false"
   inkscape:zoom="2"
   inkscape:cx="154.69151"
   inkscape:cy="142.22529"
   inkscape:window-x="3832"
   inkscape:window-y="-8"
   inkscape:window-maximized="1"
   inkscape:current-layer="layer"
   fit-margin-top="0"
   fit-margin-left="0"
   fit-margin-right="0"
   fit-margin-bottom="0" />
<style
   type="text/css"
   id="style2">
	.st0{fill:#005990;}
	.st1{fill:#262223;}
</style>

<path
   style="fill:#ff9955;fill-opacity:1;stroke:none;stroke-width:15.11811066;stroke-linecap:round;stroke-linejoin:miter;stroke-miterlimit:4;stroke-dasharray:none;stroke-dashoffset:0;stroke-opacity:0.98492462;paint-order:normal"
   d="M 10.249168,-1.4863281 223.1063,11.513672 C 234.3834,12.202407 331.9283,234.99875 326.5,244.90737 L 295,302.40629 c -5.4283,9.90862 -31.97056,12.19155 -31.8937,0.8937 l 0.14287,-21 c 0.21498,-31.59956 -215.23214,11.62845 -214.893701,-0.8937 l 5.5,-203.498918 C 54.160713,66.613386 -1.0279289,-2.1750636 10.249168,-1.4863281 Z"
   id="rect5158"
   inkscape:connector-curvature="0"
   sodipodi:nodetypes="sssssssss" /><path
   style="fill:#262223"
   d="m 226.95312,-4.2636719 c -17.14933,1.0200476 -34.65304,-0.1309643 -51.957,0.3203861 C 116.30264,-3.621902 57.454624,-4.4638294 -1.1445312,-3.4863281 -6.493929,-1.0570339 -2.7109175,5.2216951 0.14648438,8.0097656 14.526377,30.90093 30.053101,52.991779 44.115234,76.078125 c 0.714432,66.977435 -0.187622,133.970555 0.369141,200.941405 -1.079565,6.84667 7.05963,8.1998 12.005859,6.97266 64.940766,0.0447 129.985866,0.006 194.966796,-0.082 -1.62013,9.24396 -5.98956,18.78485 -5.30469,28.07812 3.85545,5.52124 11.36979,1.64051 16.77539,2.73438 12.99994,-0.37919 26.36296,0.99982 39.13868,-0.65235 6.53824,-5.41865 8.09855,-14.31128 13.18849,-20.85974 9.00579,-15.69469 18.0531,-31.36509 27.00291,-47.09143 -22.3386,-56.96218 -48.27515,-112.42158 -72.11732,-168.757446 -11.58112,-26.39492 -22.57654,-53.2219 -34.78111,-79.2386471 -2.30088,-1.9983718 -5.45165,-2.5202683 -8.40626,-2.3867188 z M 68.363281,11.513672 C 120.4582,11.68169 172.55434,11.278517 224.64844,11.71875 c 32.62873,75.287501 65.99657,150.38754 97.49804,226.08008 1.59359,4.01117 3.99245,8.33491 0.11795,11.89953 -9.4291,16.53874 -18.73595,33.15226 -28.56131,49.4618 -9.96415,-0.0102 -19.92856,-0.0626 -29.89257,0.0137 1.62247,-9.17672 5.93933,-18.4972 5.3125,-27.71289 -3.73561,-5.84616 -11.60159,-1.98518 -17.125,-3.15092 -63.97981,0.0153 -127.95971,0.12486 -191.939456,-0.0112 C 59.812817,202.90487 60.562464,137.43572 59.771484,72.087891 54.401213,60.029472 45.286304,50.120203 38.816787,38.660891 32.900492,29.615956 26.980051,20.569322 21.095703,11.501953 c 15.75586,0.0039 31.511719,0.0078 47.267578,0.01172 z"
   id="path6"
   inkscape:connector-curvature="0" />
</svg>